HIERARCHY
ROOT Hips
{
	OFFSET 0.00000 0.00000 0.00000
	CHANNELS 6 Xposition Yposition Zposition Zrotation Yrotation Xrotation 
	JOINT LHipJoint
	{
		OFFSET 0 0 0
		CHANNELS 3 Zrotation Yrotation Xrotation
		JOINT LeftUpLeg
		{
			OFFSET 1.37324 -1.83837 0.85674
			CHANNELS 3 Zrotation Yrotation Xrotation
			JOINT LeftLeg
			{
				OFFSET 2.53826 -6.97383 0.00000
				CHANNELS 3 Zrotation Yrotation Xrotation
				JOINT LeftFoot
				{
					OFFSET 2.65296 -7.28895 0.00000
					CHANNELS 3 Zrotation Yrotation Xrotation
					JOINT LeftToeBase
					{
						OFFSET 0.22100 -0.60718 2.29776
						CHANNELS 3 Zrotation Yrotation Xrotation
						End Site
						{
							OFFSET 0.00000 -0.00000 1.19228
						}
					}
				}
			}
		}
	}
	JOINT RHipJoint
	{
		OFFSET 0 0 0
		CHANNELS 3 Zrotation Yrotation Xrotation
		JOINT RightUpLeg
		{
			OFFSET -1.30156 -1.83836 0.85673
			CHANNELS 3 Zrotation Yrotation Xrotation
			JOINT RightLeg
			{
				OFFSET -2.63627 -7.24310 0.00000
				CHANNELS 3 Zrotation Yrotation Xrotation
				JOINT RightFoot
				{
					OFFSET -2.62024 -7.19904 0.00000
					CHANNELS 3 Zrotation Yrotation Xrotation
					JOINT RightToeBase
					{
						OFFSET -0.20765 -0.57052 2.42402
						CHANNELS 3 Zrotation Yrotation Xrotation
						End Site
						{
							OFFSET -0.00000 -0.00000 1.24980
						}
					}
				}
			}
		}
	}
	JOINT LowerBack
	{
		OFFSET 0 0 0
		CHANNELS 3 Zrotation Yrotation Xrotation
		JOINT Spine
		{
			OFFSET 0.05739 2.14162 -0.22815
			CHANNELS 3 Zrotation Yrotation Xrotation
			JOINT Spine1
			{
				OFFSET 0.02798 2.14167 0.08145
				CHANNELS 3 Zrotation Yrotation Xrotation
				JOINT Neck
				{
					OFFSET 0 0 0
					CHANNELS 3 Zrotation Yrotation Xrotation
					JOINT Neck1
					{
						OFFSET -0.07019 1.58903 0.32980
						CHANNELS 3 Zrotation Yrotation Xrotation
						JOINT Head
						{
							OFFSET -0.03205 1.65283 -0.21190
							CHANNELS 3 Zrotation Yrotation Xrotation
							End Site
							{
								OFFSET -0.00726 1.66788 -0.10849
							}
						}
					}
				}
				JOINT LeftShoulder
				{
					OFFSET 0 0 0
					CHANNELS 3 Zrotation Yrotation Xrotation
					JOINT LeftArm
					{
						OFFSET 3.92858 0.97533 -0.07938
						CHANNELS 3 Zrotation Yrotation Xrotation
						JOINT LeftForeArm
						{
							OFFSET 5.58345 -0.00000 -0.00000
							CHANNELS 3 Zrotation Yrotation Xrotation
							JOINT LeftHand
							{
								OFFSET 3.71087 -0.00000 0.00000
								CHANNELS 3 Zrotation Yrotation Xrotation
								JOINT LeftFingerBase
								{
									OFFSET 0 0 0
									CHANNELS 3 Zrotation Yrotation Xrotation
									JOINT LeftHandIndex1
									{
										OFFSET 0.56232 -0.00000 -0.00000
										CHANNELS 3 Zrotation Yrotation Xrotation
										End Site
										{
											OFFSET 0.45336 -0.00000 -0.00000
										}
									}
								}
								JOINT LThumb
								{
									OFFSET 0 0 0
									CHANNELS 3 Zrotation Yrotation Xrotation
									End Site
									{
										OFFSET 0.46028 -0.00000 0.46028
									}
								}
							}
						}
					}
				}
				JOINT RightShoulder
				{
					OFFSET 0 0 0
					CHANNELS 3 Zrotation Yrotation Xrotation
					JOINT RightArm
					{
						OFFSET -3.89897 1.08887 -0.22589
						CHANNELS 3 Zrotation Yrotation Xrotation
						JOINT RightForeArm
						{
							OFFSET -5.20357 -0.00000 -0.00000
							CHANNELS 3 Zrotation Yrotation Xrotation
							JOINT RightHand
							{
								OFFSET -3.64937 -0.00000 0.00000
								CHANNELS 3 Zrotation Yrotation Xrotation
								JOINT RightFingerBase
								{
									OFFSET 0 0 0
									CHANNELS 3 Zrotation Yrotation Xrotation
									JOINT RightHandIndex1
									{
										OFFSET -0.61800 -0.00000 -0.00000
										CHANNELS 3 Zrotation Yrotation Xrotation
										End Site
										{
											OFFSET -0.49824 -0.00000 -0.00000
										}
									}
								}
								JOINT RThumb
								{
									OFFSET 0 0 0
									CHANNELS 3 Zrotation Yrotation Xrotation
									End Site
									{
										OFFSET -0.50585 -0.00000 0.50585
									}
								}
							}
						}
					}
				}
			}
		}
	}
}
MOTION
Frames: 16
Frame Time: .0083333
3.3338 16.1171 1.7363 0 0 0 0 0 0 -21 0 0 0 0 0 0 0 0 0 0 0 0 0 0 21 0 0 0 0 0 0 0 0 0 0 0 0 0 0 0 0 0 0 0 0 0 0 -16 0 0 21 0 0 11 0 0 0 -8 0 0 0 0 0 0 0 0 0 0 0 0 0 0 0 0 0 0 0 0 8 0 0 0 0 0 0 0 0 0 0 0 0 0 0 0 0 0
3.3338 16.1171 1.7363 -3.2639 -1.5643 -9.0364 0.0000 0.0000 0.0000 -5.5611 4.0641 -14.5303 9.8695 17.3358 59.0513 2.5665 -15.5325 -29.2648 0.4173 -4.1466 -11.4896 0.0000 0.0000 0.0000 13.5276 -7.4002 -15.5458 -10.3730 -17.6143 60.7280 -3.1543 8.3062 -32.1705 -0.2710 3.3488 -9.2514 2.4774 0.0776 8.2479 3.0519 0.4670 0.4481 1.7202 0.2121 -4.1706 -1.0428 -0.7866 -27.0636 -2.9038 0.1725 22.7809 -0.8963 -0.4285 11.9740 -0.0000 -0.0000 0.0000 -48.6770 -50.6984 5.0181 55.1760 -54.8811 -30.3599 -0.0000 -0.0000 19.4850 -18.2379 13.2484 -4.3186 -7.1250 0.0000 -0.0000 -38.4775 39.9493 5.8310 -0.0000 -0.0000 0.0000 28.7165 53.2011 -2.0560 -36.6369 45.9462 -15.9786 0.0000 0.0000 20.6413 11.7963 -18.0539 -3.7032 7.1250 -0.0000 -0.0000 36.0753 -44.7311 0.2774
3.3343 16.1167 1.7369 -3.2536 -1.5573 -9.0366 0.0000 0.0000 0.0000 -5.5776 4.0515 -14.5266 9.8721 17.3373 59.0599 2.5662 -15.5394 -29.2644 0.4146 -4.1330 -11.4512 0.0000 0.0000 0.0000 13.5154 -7.3965 -15.5430 -10.3763 -17.6161 60.7389 -3.1557 8.3019 -32.1780 -0.2730 3.3611 -9.2856 2.4805 0.0812 8.2544 3.0457 0.4723 0.4442 1.7115 0.2145 -4.1783 -1.0372 -0.7922 -27.0421 -2.9116 0.1641 22.7815 -0.9016 -0.4327 11.9701 -0.0000 -0.0000 0.0000 -48.7010 -50.7159 5.0387 55.1728 -54.8800 -30.3573 -0.0000 -0.0000 19.5058 -18.2190 13.2326 -4.3088 -7.1250 0.0000 -0.0000 -38.4562 39.9384 5.8392 -0.0000 -0.0000 0.0000 28.7089 53.1870 -2.0641 -36.6302 45.9417 -15.9737 0.0000 0.0000 20.6161 11.7905 -18.0610 -3.7027 7.1250 -0.0000 -0.0000 36.0744 -44.7377 0.2706
3.3346 16.1158 1.7372 -3.2684 -1.5746 -9.0304 0.0000 0.0000 0.0000 -5.5618 4.0522 -14.5359 9.8756 17.3393 59.0718 2.5692 -15.5059 -29.2754 0.4226 -4.1721 -11.5614 0.0000 0.0000 0.0000 13.5389 -7.3600 -15.5506 -10.3802 -17.6182 60.7518 -3.1560 8.2679 -32.1823 -0.2755 3.3762 -9.3281 2.5057 0.0805 8.2607 3.0502 0.4744 0.4413 1.7017 0.2151 -4.1848 -1.0500 -0.7960 -27.0653 -2.8965 0.1612 22.8198 -0.8949 -0.4337 11.9893 -0.0000 -0.0000 0.0000 -48.6969 -50.7207 5.0192 55.1662 -54.8779 -30.3518 -0.0000 -0.0000 19.5202 -18.2401 13.2650 -4.3244 -7.1250 0.0000 -0.0000 -38.4873 39.9630 5.8170 -0.0000 -0.0000 0.0000 28.7098 53.2053 -2.0579 -36.6132 45.9303 -15.9615 0.0000 0.0000 20.6125 11.7775 -18.0586 -3.6981 7.1250 -0.0000 -0.0000 36.0626 -44.7374 0.2708
3.3354 16.1158 1.7380 -3.2212 -1.5864 -9.0292 0.0000 0.0000 0.0000 -5.6230 4.0558 -14.5310 9.8774 17.3403 59.0777 2.5764 -15.4689 -29.3093 0.4282 -4.1994 -11.6382 0.0000 0.0000 0.0000 13.4817 -7.3386 -15.5523 -10.3845 -17.6205 60.7660 -3.1560 8.3152 -32.1791 -0.2699 3.3420 -9.2325 2.4718 0.0881 8.2549 3.0345 0.4803 0.4416 1.7037 0.2185 -4.1814 -1.0467 -0.7974 -27.0416 -2.8880 0.1547 22.8185 -0.8932 -0.4349 11.9842 -0.0000 -0.0000 0.0000 -48.6787 -50.7089 5.0237 55.1686 -54.8787 -30.3538 -0.0000 -0.0000 19.5257 -18.2092 13.2694 -4.3180 -7.1250 0.0000 -0.0000 -38.4674 39.9703 5.8040 -0.0000 -0.0000 0.0000 28.6935 53.2040 -2.0500 -36.6087 45.9273 -15.9583 0.0000 0.0000 20.5871 11.7791 -18.0623 -3.6993 7.1250 -0.0000 -0.0000 36.0660 -44.7402 0.2679
3.3359 16.1143 1.7372 -3.2513 -1.6073 -9.0281 0.0000 0.0000 0.0000 -5.5841 4.0602 -14.5407 9.8827 17.3434 59.0956 2.5736 -15.4854 -29.2963 0.4213 -4.1660 -11.5443 0.0000 0.0000 0.0000 13.5239 -7.2934 -15.5563 -10.3888 -17.6227 60.7800 -3.1538 8.2863 -32.1693 -0.2710 3.3485 -9.2506 2.5075 0.0896 8.2824 3.0472 0.4878 0.4326 1.6961 0.2215 -4.2061 -1.0396 -0.7890 -27.0494 -2.8990 0.1678 22.8465 -0.8966 -0.4303 11.9968 -0.0000 -0.0000 0.0000 -48.7017 -50.7078 5.0234 55.1810 -54.8827 -30.3640 -0.0000 -0.0000 19.5140 -18.1772 13.2886 -4.3160 -7.1250 0.0000 -0.0000 -38.4540 39.9900 5.7778 -0.0000 -0.0000 0.0000 28.6849 53.1981 -2.0208 -36.5992 45.9209 -15.9515 0.0000 0.0000 20.5521 11.7672 -18.0818 -3.6993 7.1250 -0.0000 -0.0000 36.0671 -44.7580 0.2495
3.3359 16.1134 1.7377 -3.2663 -1.6284 -9.0180 0.0000 0.0000 0.0000 -5.5624 4.0711 -14.5537 9.8855 17.3450 59.1050 2.5742 -15.4948 -29.3013 0.4185 -4.1521 -11.5050 0.0000 0.0000 0.0000 13.5528 -7.2553 -15.5630 -10.3928 -17.6249 60.7933 -3.1414 7.7560 -32.1433 -0.4092 4.1064 -11.3761 2.5289 0.0876 8.2688 3.0550 0.4866 0.4380 1.6923 0.2207 -4.1927 -1.0378 -0.7816 -27.0457 -2.9049 0.1790 22.8431 -0.8970 -0.4259 11.9949 -0.0000 0.0000 0.0000 -48.6794 -50.7030 4.9823 55.1893 -54.8854 -30.3708 -0.0000 -0.0000 19.5048 -18.1948 13.2791 -4.3174 -7.1250 0.0000 -0.0000 -38.4619 39.9800 5.7913 -0.0000 0.0000 0.0000 28.6670 53.2240 -2.0198 -36.6016 45.9225 -15.9532 0.0000 0.0000 20.5697 11.8236 -18.0586 -3.7129 7.1250 -0.0000 -0.0000 36.0997 -44.7315 0.2772
3.3368 16.1130 1.7379 -3.2525 -1.6454 -9.0262 0.0000 0.0000 0.0000 -5.5826 4.0781 -14.5411 9.8879 17.3463 59.1130 2.5770 -15.4682 -29.3122 0.4212 -4.1657 -11.5432 0.0000 0.0000 0.0000 13.5409 -7.2160 -15.5485 -10.3954 -17.6263 60.8019 -3.1383 7.7308 -32.1287 -0.4092 4.1064 -11.3761 2.5266 0.0911 8.2796 3.0554 0.4914 0.4415 1.6935 0.2231 -4.1953 -1.0485 -0.7837 -27.0455 -2.9060 0.1814 22.8640 -0.8955 -0.4262 12.0032 -0.0000 -0.0000 0.0000 -48.6955 -50.7002 4.9724 55.1934 -54.8868 -30.3741 -0.0000 -0.0000 19.5022 -18.1745 13.2735 -4.3105 -7.1250 0.0000 -0.0000 -38.4447 39.9778 5.7901 -0.0000 -0.0000 0.0000 28.6589 53.2312 -2.0135 -36.5947 45.9178 -15.9482 0.0000 0.0000 20.5810 11.8411 -18.0531 -3.7175 7.1250 -0.0000 -0.0000 36.1107 -44.7248 0.2843
3.3379 16.1133 1.7388 -3.2116 -1.6385 -9.0284 0.0000 0.0000 0.0000 -5.6400 4.0686 -14.5336 9.8881 17.3465 59.1138 2.5786 -15.4543 -29.3192 0.4208 -4.1636 -11.5374 0.0000 0.0000 0.0000 13.4868 -7.2166 -15.5429 -10.3972 -17.6273 60.8080 -3.1397 7.7418 -32.1352 -0.4102 4.1113 -11.3899 2.5038 0.0911 8.2846 3.0428 0.4891 0.4404 1.6935 0.2222 -4.1992 -1.0446 -0.7844 -27.0276 -2.9174 0.1817 22.8622 -0.9003 -0.4272 11.9992 0.0000 0.0000 0.0000 -48.7006 -50.6973 4.9853 55.2132 -54.8932 -30.3903 -0.0000 -0.0000 19.4737 -18.1419 13.3074 -4.3130 -7.1250 0.0000 -0.0000 -38.4382 40.0099 5.7507 0.0000 0.0000 0.0000 28.6596 53.2357 -2.0072 -36.5845 45.9110 -15.9409 0.0000 0.0000 20.5997 11.8325 -18.0782 -3.7197 7.1250 -0.0000 -0.0000 36.1175 -44.7467 0.2617
3.3380 16.1133 1.7391 -3.2295 -1.6608 -9.0330 0.0000 0.0000 0.0000 -5.6156 4.0826 -14.5240 9.8888 17.3468 59.1160 2.5800 -15.4413 -29.3250 0.4243 -4.1808 -11.5859 0.0000 0.0000 0.0000 13.5171 -7.1715 -15.5288 -10.3985 -17.6279 60.8122 -3.1377 7.7428 -32.1242 -0.4044 4.0824 -11.3087 2.5258 0.0983 8.2900 3.0517 0.5011 0.4462 1.6889 0.2279 -4.1963 -1.0494 -0.7843 -27.0582 -2.9177 0.1856 22.8960 -0.8995 -0.4265 12.0181 0.0000 -0.0000 0.0000 -48.7037 -50.7177 4.9829 55.2088 -54.8918 -30.3867 -0.0000 -0.0000 19.4818 -18.1944 13.2758 -4.3163 -7.1250 0.0000 -0.0000 -38.4601 39.9774 5.7940 0.0000 -0.0000 0.0000 28.6352 53.2517 -2.0381 -36.5707 45.9017 -15.9310 0.0000 0.0000 20.6363 11.8688 -18.0433 -3.7245 7.1250 -0.0000 -0.0000 36.1276 -44.7131 0.2966
3.3388 16.1129 1.7394 -3.2212 -1.6770 -9.0324 0.0000 0.0000 0.0000 -5.6279 4.0788 -14.5228 9.8902 17.3477 59.1209 2.5781 -15.4557 -29.3163 0.4173 -4.1465 -11.4891 0.0000 0.0000 0.0000 13.5142 -7.1433 -15.5254 -10.4004 -17.6290 60.8185 -3.1399 7.6984 -32.1399 -0.4126 4.1232 -11.4235 2.5314 0.0988 8.2936 3.0477 0.5027 0.4384 1.6814 0.2284 -4.2064 -1.0350 -0.7752 -27.0162 -2.9304 0.1950 22.8911 -0.9046 -0.4225 12.0086 -0.0000 -0.0000 0.0000 -48.7112 -50.6923 4.9890 55.2231 -54.8965 -30.3985 -0.0000 -0.0000 19.5101 -18.1915 13.2460 -4.3061 -7.1250 0.0000 -0.0000 -38.4432 39.9528 5.8193 -0.0000 -0.0000 0.0000 28.6505 53.2480 -1.9963 -36.5751 45.9047 -15.9342 0.0000 0.0000 20.6232 11.8553 -18.0506 -3.7215 7.1250 -0.0000 -0.0000 36.1207 -44.7209 0.2884
3.3392 16.1124 1.7397 -3.2058 -1.6845 -9.0508 0.0000 0.0000 0.0000 -5.6442 4.0881 -14.5008 9.8908 17.3480 59.1229 2.5810 -15.4500 -29.3314 0.4212 -4.1654 -11.5426 0.0000 0.0000 0.0000 13.4950 -7.1210 -15.4985 -10.4023 -17.6300 60.8247 -3.1404 7.7180 -32.1409 -0.4062 4.0915 -11.3341 2.5198 0.1024 8.3158 3.0480 0.5071 0.4464 1.6878 0.2308 -4.2106 -1.0451 -0.7767 -27.0353 -2.9279 0.1975 22.9139 -0.9020 -0.4223 12.0210 -0.0000 0.0000 0.0000 -48.7271 -50.7031 4.9990 55.2177 -54.8947 -30.3940 -0.0000 -0.0000 19.5513 -18.1477 13.2264 -4.2888 -7.1250 0.0000 -0.0000 -38.4023 39.9417 5.8235 -0.0000 0.0000 0.0000 28.6301 53.2513 -2.0099 -36.5726 45.9029 -15.9323 0.0000 0.0000 20.6307 11.8572 -18.0710 -3.7262 7.1250 -0.0000 -0.0000 36.1333 -44.7376 0.2713
3.3399 16.1116 1.7396 -3.2024 -1.7038 -9.0442 0.0000 0.0000 0.0000 -5.6479 4.0995 -14.5099 9.8918 17.3485 59.1261 2.5821 -15.4344 -29.3350 0.4244 -4.1811 -11.5867 0.0000 0.0000 0.0000 13.4980 -7.0861 -15.5042 -10.4048 -17.6313 60.8329 -3.1410 7.6930 -32.1463 -0.4091 4.1058 -11.3746 2.5304 0.1067 8.3183 3.0462 0.5138 0.4451 1.6792 0.2339 -4.2134 -1.0285 -0.7702 -27.0374 -2.9511 0.2069 22.9238 -0.9120 -0.4200 12.0255 0.0000 -0.0000 0.0000 -48.7223 -50.7147 4.9961 55.2186 -54.8950 -30.3947 -0.0000 -0.0000 19.5585 -18.1904 13.2125 -4.2952 -7.1250 0.0000 -0.0000 -38.4259 39.9250 5.8483 0.0000 -0.0000 0.0000 28.6027 53.2621 -2.0181 -36.5623 45.8960 -15.9250 0.0000 0.0000 20.5908 11.8427 -18.0640 -3.7202 7.1250 -0.0000 -0.0000 36.1179 -44.7336 0.2753
3.3401 16.1113 1.7407 -3.1974 -1.7152 -9.0632 0.0000 0.0000 0.0000 -5.6543 4.1080 -14.4799 9.8909 17.3481 59.1233 2.5863 -15.4016 -29.3533 0.4286 -4.2016 -11.6445 0.0000 0.0000 0.0000 13.4915 -7.0751 -15.4719 -10.4057 -17.6318 60.8360 -3.1451 7.6935 -32.1685 -0.4090 4.1056 -11.3741 2.5326 0.1124 8.3339 3.0445 0.5221 0.4518 1.6752 0.2379 -4.2151 -1.0196 -0.7688 -27.0478 -2.9562 0.2074 22.9422 -0.9156 -0.4200 12.0346 -0.0000 0.0000 0.0000 -48.7235 -50.7153 5.0187 55.2340 -54.9001 -30.4074 -0.0000 -0.0000 19.5427 -18.2113 13.2261 -4.3047 -7.1250 0.0000 -0.0000 -38.4476 39.9339 5.8426 -0.0000 0.0000 0.0000 28.6044 53.2634 -2.0404 -36.5572 45.8926 -15.9213 0.0000 0.0000 20.5713 11.8553 -18.0643 -3.7243 7.1250 -0.0000 -0.0000 36.1282 -44.7323 0.2767
3.3413 16.1113 1.7411 -3.1639 -1.7008 -9.0631 0.0000 0.0000 0.0000 -5.7014 4.0932 -14.4727 9.8892 17.3471 59.1173 2.5854 -15.4157 -29.3503 0.4220 -4.1695 -11.5539 0.0000 0.0000 0.0000 13.4495 -7.0823 -15.4788 -10.4071 -17.6325 60.8406 -3.1453 7.6705 -32.1712 -0.4113 4.1170 -11.4062 2.5177 0.1053 8.3459 3.0315 0.5115 0.4441 1.6713 0.2328 -4.2297 -1.0034 -0.7604 -27.0416 -2.9780 0.2191 22.9562 -0.9246 -0.4165 12.0392 0.0000 -0.0000 0.0000 -48.7277 -50.7128 5.0259 55.2248 -54.8970 -30.3998 -0.0000 -0.0000 19.5255 -18.1619 13.2222 -4.2911 -7.1250 0.0000 -0.0000 -38.4104 39.9365 5.8313 0.0000 -0.0000 0.0000 28.5966 53.2628 -2.0156 -36.5693 45.9007 -15.9300 0.0000 0.0000 20.5188 11.8686 -18.0745 -3.7306 7.1250 -0.0000 -0.0000 36.1442 -44.7391 0.2698
3.3422 16.1107 1.7414 -3.1818 -1.7228 -9.0519 0.0000 0.0000 0.0000 -5.6827 4.1019 -14.4852 9.8893 17.3471 59.1176 2.5873 -15.3995 -29.3581 0.4245 -4.1818 -11.5886 0.0000 0.0000 0.0000 13.4728 -7.0507 -15.4844 -10.4098 -17.6340 60.8496 -3.1456 7.6866 -32.1715 -0.4086 4.1034 -11.3676 2.5413 0.1022 8.3358 3.0452 0.5096 0.4457 1.6725 0.2316 -4.2224 -1.0246 -0.7489 -27.0376 -2.9587 0.2383 22.9533 -0.9103 -0.4071 12.0375 0.0000 -0.0000 0.0000 -48.7141 -50.7116 4.9925 55.2094 -54.8920 -30.3872 -0.0000 -0.0000 19.5202 -18.1945 13.2117 -4.2960 -7.1250 0.0000 -0.0000 -38.4285 39.9240 5.8502 0.0000 -0.0000 0.0000 28.5812 53.3086 -2.0367 -36.5429 45.8830 -15.9111 0.0000 0.0000 20.5298 11.8494 -18.0615 -3.7218 7.1250 -0.0000 -0.0000 36.1218 -44.7306 0.2784
